{"title":"Harry Potter And The Deathly Hallows PPVRIP IFLIX","uid":6218711,"size":1783046094,"categoryP":"video","categoryS":"movies","magnet":"?xt=urn:btih:3c75ab66b056129478eb0838797f330231aaf85c&amp;dn=Harry+Potter+And+The+Deathly+Hallows+PPVRIP+IFLIX&amp;tr=udp%3A%2F%2Ftracker.openbittorrent.com%3A80&amp;tr=udp%3A%2F%2Fopen.demonii.com%3A1337&amp;tr=udp%3A%2F%2Ftracker.coppersurfer.tk%3A6969&amp;tr=udp%3A%2F%2Fexodus.desync.com%3A6969","seeders":1,"leechers":0,"uploader":"IwannaFan2","files":-1,"time":1299257157,"description":"Harry Potter And The Deathly Hallows Part 1 PPVRIP IFLIX &lt;a href=&quot;\nhttp://www.imdb.com/title/tt0926084/&quot; rel=&quot;nofollow&quot; target=&quot;_NEW&quot;&gt;\nhttp://www.imdb.com/title/tt0926084/&lt;/a&gt;\n\n[IMG]http://lookpic.com/c1/i2/2556/tM8nMGb.jpeg[/IMG]\n[IMG]http://img141.imageshack.us/img141/874/69627186.png[/IMG]\n[IMG]http://img121.imageshack.us/img121/9185/89528198.png[/IMG]\n[IMG]http://img576.imageshack.us/img576/8873/81195132.png[/IMG]\nTrailer:\n\n\nFormat                           : AVI\nFormat/Info                      : Audio Video Interleave\nFormat profile                   : OpenDML\nFile size                        : 1.66 GiB\nDuration                         : 2h 19mn\nOverall bit rate                 : 1 696 Kbps\n\nVideo\nID                               : 0\nFormat                           : MPEG-4 Visual\nFormat profile                   : Simple@L3\nFormat settings, BVOP            : No\nFormat settings, QPel            : No\nFormat settings, GMC             : No warppoints\nFormat settings, Matrix          : Default (H.263)\nCodec ID                         : XVID\nCodec ID/Hint                    : XviD\nDuration                         : 2h 19mn\nBit rate                         : 1 550 Kbps\nWidth                            : 720 pixels\nHeight                           : 480 pixels\nDisplay aspect ratio             : 1.500\nFrame rate                       : 29.970 fps\nOriginal frame rate              : 29.000 fps\nStandard                         : NTSC\nResolution                       : 24 bits\nColorimetry                      : 4:2:0\nScan type                        : Progressive\nBits/(Pixel*Frame)               : 0.150\nStream size                      : 1.51 GiB (91%)\nWriting library                  : XviD 1.2.1 (UTC 2008-12-04)\n\nAudio\nID                               : 1\nFormat                           : MPEG Audio\nFormat version                   : Version 1\nFormat profile                   : Layer 3\nFormat_Settings_Mode             : Joint stereo / MS Stereo\nCodec ID                         : 55\nCodec ID/Hint                    : MP3\nDuration                         : 2h 19mn\nBit rate mode                    : Constant\nBit rate                         : 128 Kbps\nChannel(s)                       : 2 channels\nSampling rate                    : 44.1 KHz\nResolution                       : 16 bits\nStream size                      : 128 MiB (8%)\nAlignment                        : Aligned on interleaves\nInterleave, duration             : 26 ms (0.78 video frame)\nWriting library                  : LAME3.98.2\n\nRelease notes...\nIf you take note of the video length you will notice that this release is full and complete and a real PPVRIP.\nEnjoy!\n\nAnother quality release from IFLIX\nMore to come very soon!\n\nVideo source: Ours\nAudio source: Ours\n\nGreetings to all other groups out there. You all do awesome work and we greatly appreciate it.\nIFLIX :-)","torrent":{"xt":"urn:btih:3c75ab66b056129478eb0838797f330231aaf85c","amp;dn":"Harry+Potter+And+The+Deathly+Hallows+PPVRIP+IFLIX","amp;tr":["udp%3A%2F%2Ftracker.openbittorrent.com%3A80","udp%3A%2F%2Fopen.demonii.com%3A1337","udp%3A%2F%2Ftracker.coppersurfer.tk%3A6969","udp%3A%2F%2Fexodus.desync.com%3A6969"],"infoHash":"3c75ab66b056129478eb0838797f330231aaf85c","infoHashBuffer":{"type":"Buffer","data":[60,117,171,102,176,86,18,148,120,235,8,56,121,127,51,2,49,170,248,92]},"announce":[],"urlList":[]}}